<svg preserveAspectRatio="none" width="100%" height="100%" overflow="visible" style="display: block;" viewBox="0 0 28 28" fill="none" xmlns="http://www.w3.org/2000/svg">
<g id="Address Icon Container">
<g id="map-pin-line">
<path id="Vector" d="M14 19.933L17.2998 16.6331C19.1223 14.8107 19.1223 11.8559 17.2998 10.0335C15.4774 8.21105 12.5226 8.21105 10.7002 10.0335C8.87772 11.8559 8.87772 14.8107 10.7002 16.6331L14 19.933ZM14 21.8186L9.75736 17.576C7.41421 15.2328 7.41421 11.4338 9.75736 9.09069C12.1005 6.74755 15.8995 6.74755 18.2427 9.09069C20.5858 11.4338 20.5858 15.2328 18.2427 17.576L14 21.8186ZM14 14.6667C14.7364 14.6667 15.3333 14.0697 15.3333 13.3333C15.3333 12.597 14.7364 12 14 12C13.2636 12 12.6667 12.597 12.6667 13.3333C12.6667 14.0697 13.2636 14.6667 14 14.6667ZM14 16C12.5272 16 11.3333 14.8061 11.3333 13.3333C11.3333 11.8606 12.5272 10.6667 14 10.6667C15.4727 10.6667 16.6667 11.8606 16.6667 13.3333C16.6667 14.8061 15.4727 16 14 16Z" fill="var(--fill-0, black)"/>
</g>
<circle id="Ellipse 9" cx="14" cy="14" r="13.5" stroke="var(--stroke-0, black)"/>
</g>
</svg>
