<svg preserveAspectRatio="none" width="100%" height="100%" overflow="visible" style="display: block;" viewBox="0 0 40 40" fill="none" xmlns="http://www.w3.org/2000/svg">
<g id="award-line">
<path id="Vector" d="M28.3333 25.409V36.8615C28.3333 37.3217 27.9602 37.695 27.5 37.695C27.349 37.695 27.2008 37.6538 27.0713 37.5762L20 33.3333L12.9287 37.5762C12.5341 37.8128 12.0222 37.6848 11.7854 37.2903C11.7077 37.1607 11.6667 37.0125 11.6667 36.8615V25.409C8.61845 22.9655 6.66667 19.2107 6.66667 15C6.66667 7.6362 12.6362 1.66667 20 1.66667C27.3638 1.66667 33.3333 7.6362 33.3333 15C33.3333 19.2107 31.3815 22.9655 28.3333 25.409ZM15 27.3642V32.446L20 29.446L25 32.446V27.3642C23.456 27.9892 21.7682 28.3333 20 28.3333C18.2318 28.3333 16.544 27.9892 15 27.3642ZM20 25C25.5228 25 30 20.5228 30 15C30 9.47715 25.5228 5 20 5C14.4771 5 10 9.47715 10 15C10 20.5228 14.4771 25 20 25Z" fill="var(--fill-0, #2E3192)"/>
</g>
</svg>
