<svg preserveAspectRatio="none" width="100%" height="100%" overflow="visible" style="display: block;" viewBox="0 0 28 28" fill="none" xmlns="http://www.w3.org/2000/svg">
<g id="Facebook Icon">
<circle id="Ellipse 8" cx="14" cy="14" r="13.5" stroke="var(--stroke-0, black)"/>
<g id="facebook-box-line">
<path id="Vector" d="M15.3333 18.6667H18.6667V9.33333H9.33333V18.6667H14V15.3333H12.6667V14H14V12.8972C14 12.0057 14.0928 11.6824 14.2671 11.3565C14.4415 11.0306 14.6972 10.7748 15.0231 10.6005C15.2783 10.464 15.5948 10.3817 16.1478 10.3464C16.3673 10.3323 16.6514 10.3502 17 10.4V11.6667H16.6667C16.0551 11.6667 15.8028 11.6955 15.6519 11.7762C15.5584 11.8263 15.4929 11.8917 15.4429 11.9853C15.3622 12.1361 15.3333 12.2857 15.3333 12.8972V14H17L16.6667 15.3333H15.3333V18.6667ZM8.66667 8H19.3333C19.7015 8 20 8.29848 20 8.66667V19.3333C20 19.7015 19.7015 20 19.3333 20H8.66667C8.29848 20 8 19.7015 8 19.3333V8.66667C8 8.29848 8.29848 8 8.66667 8Z" fill="var(--fill-0, black)"/>
</g>
</g>
</svg>
