<svg preserveAspectRatio="none" width="100%" height="100%" overflow="visible" style="display: block;" viewBox="0 0 40 40" fill="none" xmlns="http://www.w3.org/2000/svg">
<g id="calendar-2-line">
<path id="Vector" d="M15 1.66667V5H25V1.66667H28.3333V5H35C35.9205 5 36.6667 5.7462 36.6667 6.66667V33.3333C36.6667 34.2538 35.9205 35 35 35H5C4.07953 35 3.33333 34.2538 3.33333 33.3333V6.66667C3.33333 5.7462 4.07953 5 5 5H11.6667V1.66667H15ZM33.3333 18.3333H6.66667V31.6667H33.3333V18.3333ZM13.3333 21.6667V25H10V21.6667H13.3333ZM21.6667 21.6667V25H18.3333V21.6667H21.6667ZM30 21.6667V25H26.6667V21.6667H30ZM11.6667 8.33333H6.66667V15H33.3333V8.33333H28.3333V11.6667H25V8.33333H15V11.6667H11.6667V8.33333Z" fill="var(--fill-0, #2E3192)"/>
</g>
</svg>
