<svg preserveAspectRatio="none" width="100%" height="100%" overflow="visible" style="display: block;" viewBox="0 0 28 28" fill="none" xmlns="http://www.w3.org/2000/svg">
<g id="Instagram Icon">
<circle id="Ellipse 8" cx="14" cy="14" r="13.5" stroke="var(--stroke-0, black)"/>
<g id="instagram-line">
<path id="Vector" d="M14.0007 12C12.8957 12 12.0007 12.8954 12.0007 14C12.0007 15.1049 12.8961 16 14.0007 16C15.1055 16 16.0007 15.1046 16.0007 14C16.0007 12.8951 15.1053 12 14.0007 12ZM14.0007 10.6667C15.8409 10.6667 17.334 12.1581 17.334 14C17.334 15.8403 15.8426 17.3333 14.0007 17.3333C12.1603 17.3333 10.6673 15.8419 10.6673 14C10.6673 12.1597 12.1587 10.6667 14.0007 10.6667ZM18.334 10.4994C18.334 10.9595 17.9601 11.3328 17.5007 11.3328C17.0406 11.3328 16.6673 10.9589 16.6673 10.4994C16.6673 10.0399 17.0411 9.66667 17.5007 9.66667C17.9595 9.66609 18.334 10.0399 18.334 10.4994ZM14.0007 8.66667C12.351 8.66667 12.0821 8.67103 11.3148 8.7052C10.7921 8.72974 10.4417 8.80005 10.1161 8.92645C9.82677 9.03866 9.61806 9.17265 9.39568 9.39503C9.17245 9.61827 9.03869 9.82642 8.92693 10.1159C8.80024 10.4422 8.72995 10.7921 8.70585 11.3141C8.67135 12.0501 8.66732 12.3074 8.66732 14C8.66732 15.6497 8.67169 15.9185 8.70585 16.6857C8.7304 17.2083 8.8008 17.5592 8.92689 17.884C9.0394 18.1737 9.17367 18.3829 9.39497 18.6043C9.61909 18.8281 9.82786 18.9623 10.1146 19.0729C10.4441 19.2003 10.7943 19.2707 11.3147 19.2948C12.0508 19.3293 12.308 19.3333 14.0007 19.3333C15.6503 19.3333 15.9192 19.3289 16.6864 19.2948C17.2078 19.2703 17.559 19.1997 17.8847 19.0737C18.1736 18.9615 18.3835 18.8268 18.6049 18.6057C18.8291 18.3812 18.963 18.1729 19.0738 17.8855C19.2009 17.5572 19.2714 17.2065 19.2955 16.6859C19.3299 15.9499 19.334 15.6926 19.334 14C19.334 12.3503 19.3296 12.0815 19.2955 11.3142C19.2709 10.7927 19.2003 10.441 19.0742 10.1155C18.9623 9.82692 18.8278 9.61757 18.6056 9.39503C18.382 9.17143 18.1744 9.03795 17.8847 8.92628C17.5587 8.79969 17.2083 8.72931 16.6865 8.70521C15.9505 8.6707 15.6933 8.66667 14.0007 8.66667ZM14.0007 7.33333C15.8117 7.33333 16.0379 7.34 16.749 7.37333C17.4584 7.40611 17.9423 7.51833 18.3673 7.68333C18.8067 7.85278 19.1779 8.08167 19.5484 8.45222C19.9184 8.82278 20.1473 9.195 20.3173 9.63333C20.4817 10.0578 20.594 10.5422 20.6273 11.2517C20.659 11.9628 20.6673 12.1889 20.6673 14C20.6673 15.8111 20.6607 16.0372 20.6273 16.7483C20.5945 17.4578 20.4817 17.9417 20.3173 18.3667C20.1479 18.8061 19.9184 19.1772 19.5484 19.5478C19.1779 19.9178 18.8051 20.1467 18.3673 20.3167C17.9423 20.4811 17.4584 20.5933 16.749 20.6267C16.0379 20.6583 15.8117 20.6667 14.0007 20.6667C12.1895 20.6667 11.9634 20.66 11.2523 20.6267C10.5429 20.5939 10.0595 20.4811 9.63399 20.3167C9.19509 20.1472 8.82343 19.9178 8.45287 19.5478C8.08232 19.1772 7.85399 18.8045 7.68399 18.3667C7.51899 17.9417 7.40732 17.4578 7.37399 16.7483C7.34232 16.0372 7.33399 15.8111 7.33399 14C7.33399 12.1889 7.34065 11.9628 7.37399 11.2517C7.40676 10.5417 7.51899 10.0583 7.68399 9.63333C7.85343 9.19445 8.08232 8.82278 8.45287 8.45222C8.82343 8.08167 9.19565 7.85333 9.63399 7.68333C10.059 7.51833 10.5423 7.40667 11.2523 7.37333C11.9634 7.34167 12.1895 7.33333 14.0007 7.33333Z" fill="var(--fill-0, black)"/>
</g>
</g>
</svg>
