<svg preserveAspectRatio="none" width="100%" height="100%" overflow="visible" style="display: block;" viewBox="0 0 28 28" fill="none" xmlns="http://www.w3.org/2000/svg">
<g id="Phone Icon Container">
<g id="phone-line">
<path id="Vector" d="M12.2437 13.1214C12.868 14.2192 13.7808 15.132 14.8786 15.7563L15.4683 14.9307C15.6643 14.6563 16.0344 14.5715 16.3304 14.7332C17.2683 15.2455 18.3047 15.5569 19.3859 15.6425C19.7327 15.6699 20 15.9593 20 16.3071V19.2823C20 19.6241 19.7415 19.9105 19.4015 19.9454C19.0482 19.9817 18.6918 20 18.3333 20C12.6264 20 8 15.3736 8 9.66667C8 9.30818 8.01828 8.95181 8.05459 8.59851C8.08953 8.2585 8.37596 8 8.71777 8H11.6929C12.0407 8 12.3301 8.26736 12.3575 8.61406C12.4431 9.69525 12.7545 10.7318 13.2668 11.6696C13.4285 11.9656 13.3437 12.3357 13.0693 12.5317L12.2437 13.1214ZM10.5628 12.6835L11.8295 11.7787C11.4703 11.0034 11.2242 10.1812 11.0982 9.33333H9.33938C9.33535 9.44421 9.33333 9.55533 9.33333 9.66667C9.33333 14.6372 13.3628 18.6667 18.3333 18.6667C18.4447 18.6667 18.5558 18.6647 18.6667 18.6606V16.9018C17.8188 16.7758 16.9966 16.5297 16.2213 16.1705L15.3165 17.4372C14.9505 17.295 14.5971 17.1277 14.2583 16.9374L14.2195 16.9153C12.9131 16.1725 11.8276 15.0869 11.0847 13.7805L11.0626 13.7417C10.8723 13.4029 10.705 13.0495 10.5628 12.6835Z" fill="var(--fill-0, black)"/>
</g>
<circle id="Ellipse 9" cx="14" cy="14" r="13.5" stroke="var(--stroke-0, black)"/>
</g>
</svg>
